<svg id="Layer_1" data-name="Layer 1" xmlns="http://www.w3.org/2000/svg" viewBox="0 0 2100 2100"><defs><style>.cls-1{fill:#343436;}</style></defs><title>ico</title><path class="cls-1" d="M1839.83,1973.93H223.23V201.47h1616.6Zm-1464.14,0c-11.62-10.45-51.44-351.29,865-494.87,0,0-152-15.58-306.85,15.59-154,31,351.66-101.31,631.24-423.75,0,0-526,111-610.79,114s667.29-95.47,885.5-450.06c0,0-73.06,21.44-93.51,30.2s228-190.93-14.62-547.47c0,0,56.5,288.35-150,454C1358.83,850.2,759.5,1197.54,759.5,1197.54,755.83,1196.74,297.54,1461.16,375.69,1973.93Zm-54.63-105.66s-55.45-300.56,213.41-563.58c65.07-63.65,162.57-146.84,301-223.08,355.56-195.8,756.43-460.3,798.8-545.52,56.5-113.65,46.94-123.32,46.94-123.32-15.08-11-54.62,258.8-739.56,512,0,0,32.15-121.28,10.71-146.61,0,0,32.15,103.75-281.53,232.34s-276.22,249.38-277.38,281.77c0,0-72.82-81.58-152.7-59.18,0,0,102.53,31.66,118.11,72.58S237.85,1598.88,321.06,1868.27Z"/></svg>